<svg width="512" height="512" viewBox="0 0 512 512" fill="none" xmlns="http://www.w3.org/2000/svg">
  <path d="M370.5 180.2C358.8 168.5 345.2 159.5 330.5 153.8C315.8 148.1 300.2 145.2 284.5 145.2C268.8 145.2 253.2 148.1 238.5 153.8C223.8 159.5 210.2 168.5 198.5 180.2L120.5 258.2C108.8 269.9 99.8 283.5 94.1 298.2C88.4 312.9 85.5 328.5 85.5 344.2C85.5 359.9 88.4 375.5 94.1 390.2C99.8 404.9 108.8 418.5 120.5 430.2C132.2 441.9 145.8 450.9 160.5 456.6C175.2 462.3 190.8 465.2 206.5 465.2C222.2 465.2 237.8 462.3 252.5 456.6C267.2 450.9 280.8 441.9 292.5 430.2L426.5 296.2C438.2 284.5 447.2 270.9 452.9 256.2C458.6 241.5 461.5 225.9 461.5 210.2C461.5 194.5 458.6 178.9 452.9 164.2C447.2 149.5 438.2 135.9 426.5 124.2C414.8 112.5 401.2 103.5 386.5 97.8C371.8 92.1 356.2 89.2 340.5 89.2C324.8 89.2 309.2 92.1 294.5 97.8C279.8 103.5 266.2 112.5 254.5 124.2L183.5 195.2C178.3 200.4 178.3 208.9 183.5 214.1C188.7 219.3 197.2 219.3 202.4 214.1L273.4 143.1C283.8 132.7 296.1 124.8 309.5 119.8C322.9 114.8 337.1 112.2 351.5 112.2C365.9 112.2 380.1 114.8 393.5 119.8C406.9 124.8 419.2 132.7 429.6 143.1C440 153.5 447.9 165.8 452.9 179.2C457.9 192.6 460.5 206.8 460.5 221.2C460.5 235.6 457.9 249.8 452.9 263.2C447.9 276.6 440 288.9 429.6 299.3L295.6 433.3C285.2 443.7 272.9 451.6 259.5 456.6C246.1 461.6 231.9 464.2 217.5 464.2C203.1 464.2 188.9 461.6 175.5 456.6C162.1 451.6 149.8 443.7 139.4 433.3C129 422.9 121.1 410.6 116.1 397.2C111.1 383.8 108.5 369.6 108.5 355.2C108.5 340.8 111.1 326.6 116.1 313.2C121.1 299.8 129 287.5 139.4 277.1L217.4 199.1C227.8 188.7 240.1 180.8 253.5 175.8C266.9 170.8 281.1 168.2 295.5 168.2C309.9 168.2 324.1 170.8 337.5 175.8C350.9 180.8 363.2 188.7 373.6 199.1C379.6 205.1 389.2 205.1 395.2 199.1C401.2 193.1 401.2 183.5 395.2 177.5C383.5 165.8 369.9 156.8 355.2 151.1C340.5 145.4 324.9 142.5 309.2 142.5C293.5 142.5 277.9 145.4 263.2 151.1C248.5 156.8 234.9 165.8 223.2 177.5L145.2 255.5C133.5 267.2 124.5 280.8 118.8 295.5C113.1 310.2 110.2 325.8 110.2 341.5C110.2 357.2 113.1 372.8 118.8 387.5C124.5 402.2 133.5 415.8 145.2 427.5C156.9 439.2 170.5 448.2 185.2 453.9C199.9 459.6 215.5 462.5 231.2 462.5C246.9 462.5 262.5 459.6 277.2 453.9C291.9 448.2 305.5 439.2 317.2 427.5L451.2 293.5C462.9 281.8 471.9 268.2 477.6 253.5C483.3 238.8 486.2 223.2 486.2 207.5C486.2 191.8 483.3 176.2 477.6 161.5C471.9 146.8 462.9 133.2 451.2 121.5C439.5 109.8 425.9 100.8 411.2 95.1C396.5 89.4 380.9 86.5 365.2 86.5C349.5 86.5 333.9 89.4 319.2 95.1C304.5 100.8 290.9 109.8 279.2 121.5L158.5 242.2" fill="currentColor"/>
</svg>
